PathFileType	4	(X/Y/Z)	output.trc
DataRate	CameraRate	NumFrames	NumMarkers	Units	OrigDataRate	OrigDataStartFrame	OrigNumFrames
100	100	16	23	m	100	1178	4710
Frame#	Time	C7			T8			EL			EM			US			RS			AA			Fore_Clus_1			Fore_Clus_2			Fore_Clus_3			Fore_Clus_4			Hum_Clus_1			Hum_Clus_2			Hum_Clus_3			Hum_Clus_4			Thor_Clus_1			Thor_Clus_2			Thor_Clus_3			Thor_Clus_4			IJ			PX			GH			Thor_Clus_5		
		X1	Y1	Z1	X2	Y2	Z2	X3	Y3	Z3	X4	Y4	Z4	X5	Y5	Z5	X6	Y6	Z6	X7	Y7	Z7	X8	Y8	Z8	X9	Y9	Z9	X10	Y10	Z10	X11	Y11	Z11	X12	Y12	Z12	X13	Y13	Z13	X14	Y14	Z14	X15	Y15	Z15	X16	Y16	Z16	X17	Y17	Z17	X18	Y18	Z18	X19	Y19	Z19	X20	Y20	Z20	X21	Y21	Z21	X22	Y22	Z22	X23	Y23	Z23
1177	11.770000	-0.151087	1.419377	-0.139760	-0.170943	1.201800	-0.190220	-0.308201	1.057495	-0.003776	-0.272691	1.049590	-0.056818	-0.220794	0.865712	0.113128	-0.187524	0.897787	0.135257	-0.267150	1.339023	-0.010861	-0.263347	0.905031	0.112746	-0.240962	0.865595	0.143314	-0.225329	0.884498	0.156634	-0.238098	0.935861	0.134063	-0.293818	1.140688	0.050212	-0.332210	1.157707	0.007000	-0.331081	1.220704	0.015637	-0.287023	1.214748	0.054040	-0.021286	1.314561	-0.027007	-0.053213	1.264442	0.032819	-0.057211	1.311345	-0.000918	-0.001186	1.269053	-0.005138	-0.082164	1.338175	-0.064316	-0.043551	1.144035	-0.016519	-0.242110	1.320626	-0.022060	-0.062139	1.284569	0.022816
1178	11.780000	-0.151233	1.419303	-0.139662	-0.171098	1.201721	-0.190098	-0.308349	1.057538	-0.003593	-0.272794	1.049580	-0.056597	-0.217484	0.869708	0.116563	-0.184644	0.902782	0.137846	-0.267252	1.338956	-0.010719	-0.260735	0.908234	0.115596	-0.237651	0.869805	0.146823	-0.222253	0.889457	0.159690	-0.235906	0.939910	0.136119	-0.294041	1.140776	0.050354	-0.332361	1.157734	0.007072	-0.331229	1.220763	0.015645	-0.287216	1.214820	0.054107	-0.021381	1.314535	-0.026928	-0.053290	1.264381	0.032885	-0.057304	1.311299	-0.000860	-0.001283	1.268995	-0.005062	-0.082283	1.338108	-0.064232	-0.043649	1.143974	-0.016432	-0.242194	1.320640	-0.022055	-0.062234	1.284519	0.022906
1179	11.790000	-0.151348	1.419256	-0.139548	-0.171216	1.201679	-0.190005	-0.308478	1.057564	-0.003444	-0.272868	1.049564	-0.056405	-0.214143	0.873878	0.119919	-0.181775	0.907949	0.140335	-0.267336	1.338889	-0.010589	-0.258184	0.911535	0.118403	-0.234211	0.874174	0.150317	-0.219224	0.894398	0.162725	-0.233774	0.944145	0.138133	-0.294210	1.140842	0.050445	-0.332486	1.157774	0.007111	-0.331359	1.220805	0.015636	-0.287416	1.214871	0.054167	-0.021443	1.314487	-0.026840	-0.053343	1.264359	0.033029	-0.057371	1.311263	-0.000776	-0.001357	1.268927	-0.004995	-0.082379	1.338055	-0.064143	-0.043727	1.143916	-0.016374	-0.242276	1.320647	-0.022026	-0.062303	1.284484	0.023046
1180	11.800000	-0.151435	1.419234	-0.139419	-0.171298	1.201671	-0.189941	-0.308594	1.057575	-0.003329	-0.272918	1.049543	-0.056240	-0.210785	0.878225	0.123201	-0.178927	0.913288	0.142720	-0.267403	1.338821	-0.010471	-0.255552	0.914924	0.121084	-0.230768	0.878673	0.153673	-0.216096	0.899453	0.165559	-0.231757	0.948338	0.140015	-0.294397	1.140868	0.050536	-0.332612	1.157761	0.007129	-0.331509	1.220809	0.015639	-0.287615	1.214891	0.054222	-0.021501	1.314444	-0.026777	-0.053395	1.264289	0.033074	-0.057436	1.311190	-0.000687	-0.001420	1.268868	-0.004924	-0.082452	1.338013	-0.064047	-0.043784	1.143861	-0.016344	-0.242355	1.320643	-0.021974	-0.062377	1.284403	0.023115
1181	11.810000	-0.151489	1.419238	-0.139276	-0.171341	1.201701	-0.189910	-0.308701	1.057569	-0.003246	-0.272946	1.049515	-0.056101	-0.207415	0.882756	0.126411	-0.176099	0.918801	0.144998	-0.267453	1.338753	-0.010369	-0.252836	0.918539	0.123645	-0.227279	0.883485	0.156890	-0.212947	0.904625	0.168318	-0.229698	0.952765	0.141813	-0.294585	1.140881	0.050596	-0.332718	1.157736	0.007112	-0.331654	1.220800	0.015609	-0.287817	1.214908	0.054289	-0.021533	1.314407	-0.026685	-0.053428	1.264217	0.033129	-0.057485	1.311134	-0.000589	-0.001478	1.268801	-0.004847	-0.082502	1.337982	-0.063946	-0.043824	1.143809	-0.016343	-0.242432	1.320629	-0.021903	-0.062446	1.284320	0.023185
1182	11.820000	-0.151503	1.419276	-0.139121	-0.171342	1.201776	-0.189918	-0.308801	1.057548	-0.003192	-0.272957	1.049479	-0.055984	-0.204034	0.887480	0.129545	-0.173293	0.924496	0.147158	-0.267486	1.338693	-0.010292	-0.250129	0.922172	0.126180	-0.223745	0.888323	0.160150	-0.209887	0.910192	0.171006	-0.227528	0.957266	0.143460	-0.294797	1.140846	0.050646	-0.332839	1.157688	0.007086	-0.331793	1.220765	0.015571	-0.288041	1.214872	0.054340	-0.021584	1.314377	-0.026589	-0.053466	1.264133	0.033199	-0.057541	1.311074	-0.000491	-0.001518	1.268744	-0.004776	-0.082526	1.337966	-0.063841	-0.043851	1.143758	-0.016374	-0.242508	1.320604	-0.021816	-0.062485	1.284267	0.023332
1183	11.830000	-0.151487	1.419337	-0.138959	-0.171310	1.201882	-0.189957	-0.308899	1.057512	-0.003159	-0.272954	1.049432	-0.055881	-0.200656	0.892394	0.132612	-0.170515	0.930363	0.149201	-0.267506	1.338637	-0.010235	-0.247319	0.926123	0.128672	-0.220262	0.893622	0.163271	-0.206610	0.915829	0.173611	-0.225296	0.962034	0.145044	-0.295024	1.140810	0.050680	-0.332963	1.157630	0.007026	-0.331945	1.220722	0.015524	-0.288233	1.214825	0.054382	-0.021619	1.314322	-0.026489	-0.053500	1.264047	0.033261	-0.057567	1.311000	-0.000399	-0.001547	1.268686	-0.004721	-0.082531	1.337960	-0.063731	-0.043868	1.143709	-0.016428	-0.242582	1.320567	-0.021719	-0.062527	1.284184	0.023410
1184	11.840000	-0.151433	1.419426	-0.138790	-0.171242	1.202027	-0.190032	-0.308992	1.057462	-0.003139	-0.272940	1.049374	-0.055786	-0.197278	0.897507	0.135599	-0.167762	0.936409	0.151115	-0.267513	1.338592	-0.010206	-0.244553	0.930342	0.131141	-0.216551	0.899103	0.166320	-0.203338	0.921887	0.175954	-0.223118	0.966941	0.146454	-0.295254	1.140733	0.050703	-0.333099	1.157562	0.006961	-0.332083	1.220653	0.015463	-0.288439	1.214757	0.054426	-0.021652	1.314266	-0.026392	-0.053523	1.263945	0.033333	-0.057612	1.310901	-0.000280	-0.001574	1.268619	-0.004648	-0.082514	1.337965	-0.063620	-0.043881	1.143662	-0.016509	-0.242654	1.320518	-0.021616	-0.062587	1.284080	0.023479
1185	11.850000	-0.151350	1.419535	-0.138620	-0.171147	1.202199	-0.190133	-0.309081	1.057400	-0.003119	-0.272916	1.049304	-0.055688	-0.193910	0.902817	0.138511	-0.165040	0.942627	0.152900	-0.267511	1.338557	-0.010200	-0.241743	0.934797	0.133642	-0.213064	0.904975	0.169335	-0.200160	0.928226	0.178328	-0.220844	0.972182	0.147816	-0.295473	1.140665	0.050723	-0.333228	1.157512	0.006871	-0.332213	1.220602	0.015402	-0.288633	1.214706	0.054449	-0.021670	1.314221	-0.026283	-0.053548	1.263837	0.033387	-0.057649	1.310808	-0.000177	-0.001594	1.268543	-0.004596	-0.082482	1.337978	-0.063507	-0.043892	1.143616	-0.016606	-0.242725	1.320457	-0.021512	-0.062611	1.283992	0.023562
1186	11.860000	-0.151243	1.419658	-0.138452	-0.171033	1.202390	-0.190254	-0.309162	1.057327	-0.003089	-0.272884	1.049220	-0.055578	-0.190557	0.908323	0.141342	-0.162353	0.949010	0.154549	-0.267503	1.338533	-0.010215	-0.238948	0.939468	0.136080	-0.209491	0.911073	0.172341	-0.196946	0.934678	0.180657	-0.218562	0.977541	0.149075	-0.295673	1.140610	0.050745	-0.333368	1.157439	0.006799	-0.332350	1.220542	0.015335	-0.288856	1.214636	0.054483	-0.021763	1.314104	-0.026240	-0.053586	1.263737	0.033431	-0.057671	1.310725	-0.000089	-0.001621	1.268478	-0.004531	-0.082437	1.337997	-0.063395	-0.043905	1.143570	-0.016713	-0.242795	1.320386	-0.021412	-0.062647	1.283885	0.023617
1187	11.870000	-0.151112	1.419794	-0.138288	-0.170903	1.202598	-0.190392	-0.309232	1.057244	-0.003035	-0.272843	1.049122	-0.055445	-0.187219	0.914026	0.144081	-0.159703	0.955558	0.156056	-0.267490	1.338524	-0.010251	-0.236215	0.944363	0.138367	-0.206018	0.917394	0.175209	-0.193696	0.941400	0.182633	-0.216417	0.983053	0.150371	-0.295860	1.140583	0.050765	-0.333464	1.157380	0.006750	-0.332480	1.220485	0.015268	-0.289065	1.214592	0.054514	-0.021121	1.314395	-0.025795	-0.053601	1.263592	0.033460	-0.057686	1.310646	-0.000018	-0.001623	1.268414	-0.004482	-0.082381	1.338021	-0.063284	-0.043925	1.143526	-0.016828	-0.242864	1.320305	-0.021319	-0.062657	1.283806	0.023682
1188	11.880000	-0.150973	1.419929	-0.138134	-0.170772	1.202804	-0.190530	-0.309287	1.057152	-0.002946	-0.272793	1.049010	-0.055279	-0.183909	0.919916	0.146731	-0.157100	0.962252	0.157423	-0.267477	1.338523	-0.010296	-0.233412	0.949236	0.140617	-0.202495	0.923847	0.177888	-0.190969	0.948272	0.184937	-0.214209	0.988594	0.151254	-0.296008	1.140552	0.050837	-0.333535	1.157310	0.006737	-0.332605	1.220409	0.015205	-0.289274	1.214555	0.054545	-0.021145	1.314345	-0.025709	-0.053620	1.263490	0.033504	-0.057709	1.310547	0.000052	-0.001649	1.268351	-0.004423	-0.082324	1.338044	-0.063177	-0.043952	1.143481	-0.016936	-0.242931	1.320216	-0.021237	-0.062695	1.283697	0.023760
1189	11.890000	-0.150824	1.420064	-0.137989	-0.170640	1.203009	-0.190669	-0.309321	1.057054	-0.002811	-0.272731	1.048884	-0.055073	-0.180623	0.925993	0.149274	-0.154546	0.969092	0.158641	-0.267462	1.338535	-0.010353	-0.230726	0.954271	0.142721	-0.199033	0.930403	0.180407	-0.187738	0.955102	0.186686	-0.212149	0.994191	0.152302	-0.296133	1.140514	0.050934	-0.333597	1.157232	0.006759	-0.332716	1.220320	0.015187	-0.289455	1.214519	0.054603	-0.021162	1.314290	-0.025640	-0.053634	1.263391	0.033555	-0.057746	1.310328	0.000043	-0.001673	1.268279	-0.004353	-0.082264	1.338068	-0.063073	-0.043988	1.143437	-0.017038	-0.242995	1.320121	-0.021167	-0.062716	1.283606	0.023814
1190	11.900000	-0.150679	1.420188	-0.137858	-0.170520	1.203198	-0.190795	-0.309328	1.056951	-0.002620	-0.272654	1.048745	-0.054817	-0.177375	0.932243	0.151709	-0.152052	0.976061	0.159713	-0.267451	1.338555	-0.010410	-0.228112	0.959388	0.144872	-0.195616	0.937069	0.182739	-0.184802	0.962196	0.188281	-0.210105	0.999825	0.153135	-0.296221	1.140485	0.051087	-0.333634	1.157117	0.006856	-0.332792	1.220234	0.015195	-0.289609	1.214506	0.054673	-0.021180	1.314259	-0.025575	-0.053734	1.263379	0.033603	-0.057780	1.310288	0.000134	-0.001705	1.268226	-0.004294	-0.082208	1.338087	-0.062975	-0.044033	1.143392	-0.017123	-0.243057	1.320022	-0.021110	-0.062755	1.283547	0.023888
1191	11.910000	-0.150545	1.420294	-0.137741	-0.170418	1.203361	-0.190899	-0.309304	1.056844	-0.002365	-0.272561	1.048594	-0.054507	-0.174170	0.938657	0.154029	-0.149628	0.983147	0.160640	-0.267443	1.338579	-0.010461	-0.225775	0.964445	0.147262	-0.192223	0.943842	0.184914	-0.182129	0.969438	0.189872	-0.208269	1.005490	0.153787	-0.296272	1.140466	0.051291	-0.333659	1.157005	0.006990	-0.332851	1.220133	0.015236	-0.289726	1.214471	0.054770	-0.021165	1.314234	-0.025489	-0.053815	1.263338	0.033647	-0.057807	1.310212	0.000217	-0.001729	1.268173	-0.004240	-0.082160	1.338099	-0.062883	-0.044086	1.143348	-0.017186	-0.243116	1.319921	-0.021066	-0.062755	1.283339	0.023925
1192	11.920000	-0.150423	1.420383	-0.137637	-0.170334	1.203500	-0.190982	-0.309242	1.056735	-0.002040	-0.272447	1.048434	-0.054138	-0.171012	0.945228	0.156220	-0.147281	0.990341	0.161416	-0.267439	1.338609	-0.010505	-0.223140	0.969664	0.149048	-0.188926	0.950766	0.187031	-0.179344	0.976521	0.191273	-0.206597	1.011260	0.154481	-0.296299	1.140438	0.051479	-0.333670	1.156898	0.007167	-0.332906	1.220037	0.015343	-0.289813	1.214466	0.054901	-0.021254	1.314156	-0.025453	-0.053853	1.263252	0.033701	-0.057856	1.310166	0.000298	-0.001763	1.268128	-0.004170	-0.082119	1.338105	-0.062797	-0.044145	1.143305	-0.017228	-0.243172	1.319821	-0.021035	-0.062796	1.283258	0.023969
